<svg width="25" height="28" viewBox="0 0 25 28" fill="none" xmlns="http://www.w3.org/2000/svg">
<path d="M10.2875 21.2013C10.2875 22.4873 10.5852 23.6899 11.0972 24.7735H3.14317C1.82147 24.7735 0.761719 23.7138 0.761719 22.3921V3.34044C0.761719 2.70884 1.01262 2.1031 1.45923 1.6565C1.90584 1.20989 2.51157 0.958984 3.14317 0.958984H4.3339V9.29407L7.31071 7.50798L10.2875 9.29407V0.958984H17.4319C18.0635 0.958984 18.6692 1.20989 19.1158 1.6565C19.5624 2.1031 19.8133 2.70884 19.8133 3.34044V12.9615C19.4204 12.902 19.0275 12.8662 18.6226 12.8662C14.0145 12.8662 10.2875 16.5932 10.2875 21.2013ZM24.3381 22.8683C24.4572 22.8683 24.4572 22.9874 24.3381 23.1065L23.1474 25.1307C23.0283 25.2498 22.9092 25.2498 22.7902 25.2498L21.3613 24.7735C21.0041 25.0117 20.7659 25.1307 20.4087 25.3689L20.1706 26.9168C20.1706 27.0359 20.0515 27.155 19.9324 27.155H17.551C17.4319 27.155 17.3128 27.0359 17.1937 26.9168L16.9556 25.3689C16.5984 25.2498 16.2412 25.0117 16.003 24.7735L14.5741 25.3689C14.4551 25.3689 14.336 25.3689 14.2169 25.2498L13.0262 23.2256C12.9071 23.1065 13.0262 22.9874 13.1453 22.8683L14.4551 21.9158V20.725L13.1453 19.7725C13.0262 19.6534 13.0262 19.5343 13.0262 19.4152L14.2169 17.391C14.336 17.2719 14.4551 17.2719 14.5741 17.2719L16.003 17.8673C16.3602 17.6292 16.5984 17.5101 16.9556 17.2719L17.1937 15.724C17.1937 15.6049 17.3128 15.4858 17.551 15.4858H19.9324C20.0515 15.4858 20.1706 15.6049 20.1706 15.724L20.4087 17.2719C20.7659 17.391 21.1231 17.6292 21.4804 17.8673L22.9092 17.2719C23.0283 17.2719 23.2664 17.2719 23.2664 17.391L24.4572 19.4152C24.5762 19.5343 24.4572 19.6534 24.3381 19.7725L23.0283 20.725V21.9158L24.3381 22.8683ZM20.4087 21.2013C20.4087 20.2488 19.5752 19.4152 18.6226 19.4152C17.67 19.4152 16.8365 20.2488 16.8365 21.2013C16.8365 22.1539 17.67 22.9874 18.6226 22.9874C19.5752 22.9874 20.4087 22.1539 20.4087 21.2013Z" fill="#484848"/>
</svg>
