<svg width="29" height="29" viewBox="0 0 29 29" fill="none" xmlns="http://www.w3.org/2000/svg">
<path d="M19.0534 14.6017C22.3401 14.6017 25.0076 11.9342 25.0076 8.64753C25.0076 5.36083 22.3401 2.69336 19.0534 2.69336C15.7667 2.69336 13.0993 5.36083 13.0993 8.64753C13.0993 11.9342 15.7667 14.6017 19.0534 14.6017ZM25.5435 21.2704C25.079 20.794 24.4955 20.5559 23.8168 20.5559H15.4809L13.004 19.6866L13.397 18.5672L15.4809 19.365H18.8153C19.2321 19.365 19.5655 19.1983 19.8394 18.9244C20.1133 18.6505 20.2443 18.3171 20.2443 17.9479C20.2443 17.3049 19.9346 16.8643 19.3154 16.6142L10.6581 13.4109H8.33593V24.1284L16.6718 26.51L26.2342 22.9375C26.2461 22.3064 26.0079 21.7467 25.5435 21.2704ZM5.95426 13.4109H1.17188V26.51H5.95426V13.4109Z" fill="#484848"/>
</svg>
