<svg width="17" height="19" viewBox="0 0 17 19" fill="none" xmlns="http://www.w3.org/2000/svg">
<path fill-rule="evenodd" clip-rule="evenodd" d="M8.32049 3.57617H2.00049C0.895488 3.57617 0.000488281 4.52517 0.000488281 5.69417V16.2822C0.000488281 17.4522 0.895488 18.4002 2.00049 18.4002H13.0005C14.1055 18.4002 15.0005 17.4522 15.0005 16.2822V8.53217L11.0865 12.6762C10.7447 13.0417 10.2996 13.2942 9.81049 13.4002L7.12949 13.9682C5.37949 14.3382 3.83749 12.7052 4.18749 10.8532L4.72349 8.01417C4.82049 7.50217 5.05849 7.03117 5.40749 6.66217L8.32049 3.57617Z" fill="#B51144"/>
<path fill-rule="evenodd" clip-rule="evenodd" d="M16.8467 1.71743C16.7456 1.46146 16.5973 1.22674 16.4097 1.02543C16.2251 0.828561 16.0027 0.671068 15.7557 0.562433C15.5123 0.455569 15.2495 0.400391 14.9837 0.400391C14.7179 0.400391 14.455 0.455569 14.2117 0.562433C13.9647 0.671068 13.7422 0.828561 13.5577 1.02543L13.0117 1.60343L15.8637 4.62343L16.4097 4.04443C16.5993 3.84466 16.7478 3.60953 16.8467 3.35243C17.0527 2.8269 17.0527 2.24297 16.8467 1.71743ZM14.4507 6.12043L11.5977 3.09943L6.82068 8.15943C6.7502 8.23453 6.70266 8.32821 6.68368 8.42943L6.14768 11.2694C6.07768 11.6394 6.38668 11.9654 6.73568 11.8914L9.41768 11.3244C9.51526 11.3027 9.60409 11.2522 9.67268 11.1794L14.4507 6.12043Z" fill="#B51144"/>
</svg>
