<svg width="20" height="19" viewBox="0 0 20 19" fill="none" xmlns="http://www.w3.org/2000/svg">
<path d="M5.83114 6.55475C5.72145 6.44507 5.65983 6.2963 5.65983 6.14119C5.65983 5.98607 5.72145 5.83731 5.83114 5.72762C5.94082 5.61794 6.08958 5.55632 6.2447 5.55632C6.39982 5.55632 6.54858 5.61794 6.65827 5.72762L9.16741 8.2375V2.04939C9.16741 1.89436 9.229 1.74568 9.33862 1.63605C9.44825 1.52643 9.59693 1.46484 9.75196 1.46484C9.90699 1.46484 10.0557 1.52643 10.1653 1.63605C10.2749 1.74568 10.3365 1.89436 10.3365 2.04939V8.2375L12.8456 5.72762C12.9553 5.61794 13.1041 5.55632 13.2592 5.55632C13.4143 5.55632 13.5631 5.61794 13.6728 5.72762C13.7825 5.83731 13.8441 5.98607 13.8441 6.14119C13.8441 6.2963 13.7825 6.44507 13.6728 6.55475L10.1655 10.062C10.1112 10.1164 10.0468 10.1595 9.9758 10.1889C9.90484 10.2183 9.82878 10.2334 9.75196 10.2334C9.67514 10.2334 9.59907 10.2183 9.52811 10.1889C9.45715 10.1595 9.39268 10.1164 9.33839 10.062L5.83114 6.55475ZM17.9356 10.233V14.9093C17.9356 15.2194 17.8124 15.5167 17.5931 15.736C17.3739 15.9552 17.0765 16.0784 16.7665 16.0784H2.73744C2.42738 16.0784 2.13002 15.9552 1.91078 15.736C1.69153 15.5167 1.56836 15.2194 1.56836 14.9093V10.233C1.56836 9.92292 1.69153 9.62556 1.91078 9.40632C2.13002 9.18707 2.42738 9.0639 2.73744 9.0639H6.5662C6.60459 9.06387 6.64261 9.0714 6.6781 9.08607C6.71358 9.10074 6.74582 9.12226 6.77298 9.14939L8.5098 10.8906C8.67272 11.0541 8.86631 11.1838 9.07947 11.2723C9.29262 11.3608 9.52115 11.4064 9.75196 11.4064C9.98276 11.4064 10.2113 11.3608 10.4244 11.2723C10.6376 11.1838 10.8312 11.0541 10.9941 10.8906L12.7331 9.15158C12.7871 9.09651 12.8606 9.065 12.9377 9.0639H16.7665C17.0765 9.0639 17.3739 9.18707 17.5931 9.40632C17.8124 9.62556 17.9356 9.92292 17.9356 10.233ZM15.0128 12.5712C15.0128 12.3977 14.9614 12.2282 14.8651 12.084C14.7687 11.9398 14.6318 11.8274 14.4716 11.7611C14.3114 11.6947 14.1351 11.6774 13.965 11.7112C13.7949 11.745 13.6387 11.8285 13.516 11.9512C13.3934 12.0738 13.3099 12.23 13.2761 12.4001C13.2422 12.5702 13.2596 12.7465 13.326 12.9067C13.3923 13.0669 13.5047 13.2039 13.6489 13.3002C13.7931 13.3965 13.9626 13.448 14.136 13.448C14.3686 13.448 14.5916 13.3556 14.756 13.1912C14.9205 13.0267 15.0128 12.8037 15.0128 12.5712Z" fill="#B51144"/>
</svg>
