<svg width="25" height="24" viewBox="0 0 25 24" fill="none" xmlns="http://www.w3.org/2000/svg">
<path d="M14.8735 14.0579L16.5407 11.1761C16.6479 10.9975 16.6002 10.7712 16.4454 10.6402L14.683 9.25888C14.7187 8.9969 14.7425 8.72301 14.7425 8.44912C14.7425 8.17522 14.7187 7.90133 14.683 7.62744L16.4454 6.24607C16.6002 6.11508 16.6479 5.88882 16.5407 5.7102L14.8735 2.82838C14.7663 2.64976 14.552 2.57831 14.3615 2.64976L12.2894 3.48334C11.8607 3.14991 11.3963 2.87601 10.8842 2.66166L10.5746 0.458623C10.5546 0.362311 10.5025 0.275659 10.4267 0.212901C10.351 0.150144 10.2562 0.115014 10.1578 0.113281H6.82348C6.62104 0.113281 6.44241 0.26809 6.40669 0.470531L6.09707 2.67357C5.59692 2.88792 5.12059 3.16182 4.69189 3.49525L2.61984 2.66166C2.42931 2.59021 2.21496 2.66166 2.10778 2.84029L0.440614 5.72211C0.333439 5.90073 0.381072 6.12699 0.535881 6.25798L2.29831 7.63935C2.26259 7.90133 2.23877 8.17522 2.23877 8.44912C2.23877 8.72301 2.26259 8.9969 2.29831 9.27079L0.535881 10.6522C0.381072 10.7831 0.333439 11.0094 0.440614 11.188L2.10778 14.0698C2.21496 14.2485 2.42931 14.3199 2.61984 14.2485L4.69189 13.4149C5.12059 13.7483 5.58501 14.0222 6.09707 14.2366L6.40669 16.4396C6.44241 16.6301 6.62104 16.785 6.82348 16.785H10.1578C10.3603 16.785 10.5389 16.6301 10.5746 16.4277L10.8842 14.2247C11.3844 14.0103 11.8607 13.7364 12.2894 13.403L14.3615 14.2366C14.552 14.308 14.7663 14.2366 14.8735 14.0579ZM8.49065 10.8308C7.18073 10.8308 6.10898 9.75903 6.10898 8.44912C6.10898 7.1392 7.18073 6.06745 8.49065 6.06745C9.80056 6.06745 10.8723 7.1392 10.8723 8.44912C10.8723 9.75903 9.80056 10.8308 8.49065 10.8308ZM24.1025 19.9645L22.9593 19.0833C22.9831 18.9165 23.0069 18.7379 23.0069 18.5593C23.0069 18.3807 22.995 18.202 22.9593 18.0353L24.0906 17.1541C24.1858 17.0707 24.2216 16.9279 24.1501 16.8088L23.0784 14.963C23.0188 14.8439 22.8759 14.8082 22.7449 14.8439L21.4231 15.3798C21.1492 15.1654 20.8515 14.9868 20.5181 14.8558L20.3156 13.4506C20.3109 13.387 20.2827 13.3273 20.2365 13.2833C20.1903 13.2393 20.1294 13.214 20.0655 13.2124H17.934C17.803 13.2124 17.6839 13.3077 17.672 13.4387L17.4695 14.8439C17.148 14.9868 16.8384 15.1535 16.5645 15.3679L15.2427 14.832C15.182 14.8092 15.1152 14.8086 15.0541 14.8304C14.9931 14.8522 14.9417 14.895 14.9092 14.9511L13.8375 16.7969C13.7779 16.9159 13.7899 17.0588 13.897 17.1422L15.0283 18.0234C14.9801 18.3711 14.9801 18.7237 15.0283 19.0714L13.897 19.9526C13.8018 20.0359 13.766 20.1788 13.8375 20.2979L14.9092 22.1437C14.9688 22.2628 15.1117 22.2985 15.2427 22.2628L16.5645 21.7269C16.8384 21.9413 17.1361 22.1199 17.4695 22.2509L17.672 23.6561C17.6958 23.7871 17.803 23.8823 17.934 23.8823H20.0655C20.1965 23.8823 20.3156 23.7871 20.3275 23.6561L20.53 22.2509C20.8515 22.108 21.1611 21.9413 21.4231 21.7269L22.7568 22.2628C22.8759 22.3104 23.0188 22.2628 23.0903 22.1437L24.162 20.2979C24.2335 20.1907 24.1977 20.0478 24.1025 19.9645ZM18.9938 20.155C18.7826 20.1549 18.5735 20.1133 18.3784 20.0324C18.1833 19.9515 18.0061 19.8329 17.8568 19.6835C17.7075 19.5342 17.5891 19.3568 17.5084 19.1617C17.4276 18.9665 17.3861 18.7574 17.3862 18.5462C17.3863 18.335 17.4279 18.1259 17.5088 17.9308C17.5897 17.7357 17.7082 17.5585 17.8576 17.4092C18.007 17.2599 18.1844 17.1415 18.3795 17.0608C18.5747 16.98 18.7838 16.9385 18.995 16.9386C19.4215 16.9387 19.8305 17.1083 20.132 17.41C20.4335 17.7117 20.6028 18.1209 20.6026 18.5474C20.6025 18.9739 20.4329 19.3829 20.1312 19.6844C19.8294 19.9859 19.4203 20.1552 18.9938 20.155Z" fill="#484848"/>
</svg>
